<svg xmlns="http://www.w3.org/2000/svg" viewBox="0 0 100 100" fill="none">
  <!-- Glow Rays -->
  <g stroke="#ffd233" stroke-width="6" stroke-linecap="round">
    <line x1="50" y1="12" x2="50" y2="20" />
    <line x1="73" y1="21" x2="79" y2="27" />
    <line x1="82" y1="46" x2="90" y2="46" />
    <line x1="75" y1="69" x2="81" y2="75" />
    <line x1="25" y1="69" x2="19" y2="75" />
    <line x1="10" y1="46" x2="18" y2="46" />
    <line x1="27" y1="21" x2="21" y2="27" />
  </g>

  <!-- Base -->
  <path d="M44 79h12M46 85h8" stroke="#064e3b" stroke-width="5" stroke-linecap="round" />

  <!-- Bulb Glass Outline -->
  <path d="M40 73c-6-5-10-14-8-23c2-9 10-16 20-16c9 0 17 6 19 15c2 9-2 19-10 24" stroke="#064e3b" stroke-width="6" stroke-linecap="round" stroke-linejoin="round" />

  <!-- Yellow Monogram L + A -->
  <path d="M34 68h8l10-34c1-3 5-3 6-1c4 4 4 12 0 16c-3 3-7 3-10 0" stroke="#ffd233" stroke-width="6" stroke-linecap="round" stroke-linejoin="round" />
  <path d="M58 48v20c0 2 2 3 4 3" stroke="#ffd233" stroke-width="6" stroke-linecap="round" stroke-linejoin="round" />
</svg>